<?xml version="1.0" encoding="utf-8"?>
<!-- Generator: Adobe Illustrator 16.0.4, SVG Export Plug-In . SVG Version: 6.00 Build 0)  -->
<!DOCTYPE svg PUBLIC "-//W3C//DTD SVG 1.1//EN" "http://www.w3.org/Graphics/SVG/1.1/DTD/svg11.dtd">
<svg version="1.1" id="Layer_1" xmlns="http://www.w3.org/2000/svg" xmlns:xlink="http://www.w3.org/1999/xlink" x="0px" y="0px"
	 width="387.414px" height="59.375px" viewBox="0 0 387.414 59.375" enable-background="new 0 0 387.414 59.375"
	 xml:space="preserve">
<g id="BG" display="none">
	<g id="Layer_3" display="inline">
		<rect width="432" height="291.417"/>
	</g>
</g>
<g id="Old_Logo" display="none">
	<g id="Text" display="inline">
		<g>
			<path fill="#1A75E0" d="M88.904,26.459h30.649c6.06,0,10.952,1.565,14.677,4.693c3.725,3.132,5.588,7.527,5.588,13.192
				c0,4.87-1.661,9.112-4.985,12.724c-3.325,3.611-8.413,5.418-15.264,5.418H98.183V88.87h-9.278L88.904,26.459L88.904,26.459z
				 M124.893,35.04c-2.037-0.876-4.831-1.315-8.379-1.315H98.183V55.35h18.331c4.136,0,7.492-0.809,10.069-2.423
				s3.866-4.461,3.866-8.54C130.448,39.799,128.595,36.684,124.893,35.04z"/>
			<path fill="#1A75E0" d="M139.796,26.396h8.391v23.281c1.989-2.294,3.776-3.907,5.362-4.843c2.705-1.615,6.077-2.422,10.118-2.422
				c7.242,0,12.152,2.309,14.732,6.925c1.398,2.521,2.099,6.021,2.099,10.493v29.188h-8.626V60.342c0-3.342-0.464-5.792-1.398-7.351
				c-1.522-2.491-4.382-3.737-8.579-3.737c-3.481,0-6.636,1.089-9.465,3.27c-2.829,2.183-4.243,6.304-4.243,12.365V89.02h-8.391
				V26.396z"/>
			<path fill="#1A75E0" d="M214.148,44.62c3.306,1.517,5.824,3.479,7.555,5.885c1.668,2.295,2.779,4.972,3.337,8.03
				c0.494,2.096,0.741,5.438,0.741,10.025h-36.32c0.153,4.629,1.34,8.344,3.562,11.142c2.22,2.797,5.658,4.194,10.315,4.194
				c4.347,0,7.818-1.321,10.409-3.967c1.447-1.537,2.477-3.314,3.079-5.339h8.254c-0.218,1.675-0.94,3.534-2.169,5.589
				s-2.6,3.73-4.107,5.033c-2.531,2.268-5.662,3.796-9.396,4.589c-2.005,0.452-4.271,0.681-6.802,0.681
				c-6.178,0-11.414-2.062-15.708-6.184c-4.295-4.12-6.44-9.891-6.44-17.312c0-7.309,2.163-13.24,6.488-17.801
				c4.323-4.56,9.978-6.842,16.96-6.842C207.432,42.348,210.846,43.105,214.148,44.62z M217.154,62.486
				c-0.338-3.314-1.125-5.963-2.356-7.945c-2.282-3.682-6.087-5.523-11.42-5.523c-3.821,0-7.028,1.27-9.618,3.803
				c-2.587,2.537-3.96,5.758-4.113,9.666H217.154L217.154,62.486z"/>
			<path fill="#1A75E0" d="M225.732,26.608h10.932l34.156,50.426V26.608h8.856v62.41h-10.423l-34.662-50.363v50.363h-8.859V26.608z"
				/>
			<path fill="#1A75E0" d="M319.235,47.908c4.411,3.904,6.62,9.648,6.62,17.232c0,7.329-1.945,13.387-5.834,18.17
				c-3.891,4.779-9.924,7.172-18.104,7.172c-6.82,0-12.239-2.114-16.253-6.348c-4.013-4.229-6.019-9.91-6.019-17.043
				c0-7.641,2.115-13.725,6.344-18.252s9.906-6.791,17.035-6.791C309.42,42.051,314.819,44.004,319.235,47.908z M314.023,78.148
				c2.044-3.834,3.063-8.1,3.063-12.795c0-4.242-0.736-7.693-2.211-10.354c-2.337-4.187-6.363-6.28-12.08-6.28
				c-5.069,0-8.761,1.782-11.063,5.346c-2.305,3.565-3.457,7.865-3.457,12.899c0,4.839,1.152,8.869,3.457,12.095
				c2.305,3.227,5.963,4.836,10.974,4.836C308.207,83.896,311.979,81.98,314.023,78.148z"/>
			<path fill="#1A75E0" d="M356.435,44.77c1.485,0.85,3.175,2.336,5.062,4.461V26.247h8.065v62.622h-7.555v-6.33
				c-1.951,2.804-4.256,4.829-6.921,6.074c-2.663,1.246-5.712,1.869-9.147,1.869c-5.542,0-10.345-2.131-14.399-6.395
				c-4.057-4.264-6.084-9.936-6.084-17.016c0-6.629,1.85-12.37,5.549-17.229c3.7-4.854,8.988-7.284,15.863-7.284
				C350.674,42.561,353.863,43.297,356.435,44.77z M337.699,78.885c2.258,3.286,5.876,4.928,10.854,4.928
				c3.866,0,7.044-1.521,9.533-4.564c2.49-3.045,3.736-7.413,3.736-13.105c0-5.75-1.284-10.007-3.854-12.768
				c-2.566-2.761-5.735-4.145-9.51-4.145c-4.206,0-7.616,1.474-10.229,4.42c-2.612,2.944-3.918,7.279-3.918,12.998
				C334.312,71.521,335.442,75.602,337.699,78.885z"/>
			<path fill="#1A75E0" d="M403.245,44.62c3.306,1.517,5.824,3.479,7.554,5.885c1.669,2.295,2.781,4.972,3.338,8.03
				c0.493,2.096,0.741,5.438,0.741,10.025h-36.321c0.153,4.629,1.343,8.344,3.563,11.142c2.22,2.797,5.658,4.194,10.314,4.194
				c4.349,0,7.816-1.321,10.407-3.967c1.449-1.537,2.479-3.314,3.081-5.339h8.254c-0.218,1.675-0.939,3.534-2.169,5.589
				c-1.228,2.055-2.6,3.73-4.105,5.033c-2.531,2.268-5.662,3.796-9.396,4.589c-2.007,0.452-4.271,0.681-6.802,0.681
				c-6.179,0-11.414-2.062-15.709-6.184c-4.294-4.12-6.44-9.891-6.44-17.312c0-7.309,2.164-13.24,6.488-17.801
				c4.324-4.56,9.979-6.842,16.96-6.842C396.526,42.348,399.94,43.105,403.245,44.62z M406.252,62.486
				c-0.339-3.314-1.126-5.963-2.357-7.945c-2.281-3.682-6.087-5.523-11.42-5.523c-3.82,0-7.026,1.27-9.616,3.803
				c-2.589,2.537-3.962,5.758-4.114,9.666H406.252L406.252,62.486z"/>
		</g>
	</g>
	<g id="Layer_4" display="inline">
		<g>
			<g>
				<path fill="#48F7F5" d="M18,73.48l32.165,0.004c1.188,4.391,5.201,7.621,9.967,7.621c5.702,0,10.324-4.623,10.324-10.324
					s-4.623-10.324-10.324-10.324c-4.738,0-8.73,3.191-9.944,7.544L18,68.006V26.461h62.393v62.393H18V73.48z"/>
			</g>
		</g>
	</g>
</g>
<g id="New_Logo">
	<path fill="#1A75E0" d="M161.654,35.113c1.159-7.037,6.362-11.321,12.583-11.321c6.188,0,11.363,4.226,12.562,11.205l0.027,0.128
		h-25.055L161.654,35.113z M161.675,41.16h33.75c0.15-1.011,0.229-2.045,0.229-3.098c0-11.631-9.59-21.062-21.418-21.062l0,0
		c-11.826,0-21.416,9.432-21.416,21.062c0,11.632,9.59,21.062,21.416,21.062c8.939,0,16.602-5.388,19.811-13.04h-8.873
		c-2.258,4.396-6.316,7.333-10.938,7.333c-6.185,0-11.361-5.265-12.561-12.241L161.675,41.16L161.675,41.16z"/>
	<path fill="#1A75E0" d="M343.438,35.113c1.157-7.037,6.36-11.321,12.582-11.321c6.188,0,11.364,4.226,12.563,11.205l0.027,0.128
		h-25.056L343.438,35.113z M343.46,41.16h33.748c0.152-1.011,0.23-2.045,0.23-3.098c0-11.631-9.59-21.062-21.418-21.062l0,0
		c-11.826,0-21.416,9.432-21.416,21.062c0,11.632,9.59,21.062,21.416,21.062c8.938,0,16.602-5.388,19.811-13.04h-8.873
		c-2.258,4.396-6.315,7.333-10.938,7.333c-6.187,0-11.361-5.265-12.562-12.241L343.46,41.16L343.46,41.16z"/>
	<path fill="#1A75E0" d="M270.627,17.002c-11.825,0-21.416,9.43-21.416,21.062s9.591,21.062,21.416,21.062h0.078
		c11.826,0,21.416-9.43,21.416-21.062s-9.59-21.062-21.416-21.062H270.627z M270.705,23.625c6.222,0,11.422,4.451,12.582,11.488
		l-0.119,0.012l0.119-0.012c0.08,1.223,0.151,2.445,0.115,3.67c-0.027,0.95-0.119,1.909-0.287,2.846
		c-0.593,3.295-2.14,6.373-4.617,8.65c-2.028,1.865-4.998,3.138-7.793,3.138h-0.078c-2.795,0-5.764-1.271-7.795-3.138
		c-2.479-2.277-4.022-5.355-4.614-8.65c-0.168-0.937-0.261-1.896-0.289-2.846c-0.037-1.225,0.036-2.447,0.116-3.67l0.119,0.012
		l-0.119-0.012c1.158-7.037,6.361-11.488,12.582-11.488H270.705z"/>
	<path fill="#1A75E0" d="M326.755,0.083v21.56c-3.67-2.903-8.334-4.641-13.41-4.641h-0.078c-11.825,0-21.415,9.43-21.415,21.062
		s9.59,21.062,21.416,21.062h0.077c11.826,0,21.416-9.43,21.416-21.062V0.083H326.755z M313.208,23.625
		c6.221,0,11.559,4.451,12.719,11.488l-0.119,0.012l0.119-0.012c0.08,1.223,0.152,2.445,0.115,3.67
		c-0.027,0.95-0.119,1.909-0.287,2.846c-0.592,3.295-2.139,6.373-4.617,8.65c-2.028,1.865-4.998,3.138-7.793,3.138h-0.078
		c-2.795,0-5.764-1.271-7.795-3.138c-2.479-2.277-4.022-5.355-4.614-8.65c-0.168-0.937-0.261-1.896-0.289-2.846
		c-0.037-1.225,0.037-2.447,0.117-3.67l0.118,0.012l-0.118-0.012c1.157-7.037,6.225-11.488,12.444-11.488H313.208z"/>
	<path fill="#1A75E0" d="M98.252,8.083c5.02,0,9.104,4.084,9.104,9.104c0,5.02-4.084,9.104-9.104,9.104H77.044l0,0V8.083H98.252
		 M98.252,0.083H68.773v59.209h8.271v-25h21.208c9.447,0,17.104-7.657,17.104-17.104S107.699,0.083,98.252,0.083L98.252,0.083z"/>
	<path fill="#1A75E0" d="M152.898,59.292h-8.122v-25c0-5.059-4.761-9.174-10.612-9.174c-5.853,0-10.614,4.115-10.614,9.174v25
		h-8.193V0.083h8.193c0,0,0,23.189,0,23.267c0-0.375,0.17-0.68,0.312-1.014c1.091-2.564,3.995-4.216,6.576-4.74
		c4.529-0.92,9.612-0.557,13.697,1.752c1.139,0.646,2.28,1.449,3.241,2.34c2.119,1.964,3.832,4.395,4.694,7.172
		c0.487,1.568,0.666,3.201,0.785,4.834c0.015,0.197,0.042,0.4,0.042,0.6C152.898,34.293,152.898,59.292,152.898,59.292z"/>
	<polygon fill="#1A75E0" points="240.304,59.292 203.276,11.508 203.276,59.292 195.481,59.292 195.481,0.083 204.239,0.083 
		241.521,47.867 241.521,0.083 249.315,0.083 249.315,59.292 	"/>
	<path fill="#1A75E0" stroke="#1A75E0" stroke-width="8" stroke-miterlimit="10" d="M331.382,38.062"/>
	<path fill="#1A75E0" stroke="#1A75E0" stroke-width="8" stroke-miterlimit="10" d="M331.382,0.083"/>
	<g id="Layer_4_2_">
		<g>
			<g>
				<path fill="#48F7F5" d="M0.391,44.596l30.45,0.004c1.125,4.156,4.924,7.215,9.435,7.215c5.398,0,9.774-4.377,9.774-9.774
					s-4.376-9.772-9.774-9.772c-4.485,0-8.264,3.021-9.414,7.142L0.39,39.414V0.084h59.066v59.065H0.391V44.596z"/>
			</g>
		</g>
	</g>
</g>
<g id="Variants" display="none">
	<path display="inline" fill="#1A75E0" d="M257.396,103.916c5.021,0,9.104,4.084,9.104,9.104c0,5.021-4.084,9.104-9.104,9.104
		h-21.209l0,0v-18.209L257.396,103.916 M257.396,95.916h-29.479v59.209h8.271v-25h21.209c9.445,0,17.104-7.658,17.104-17.104
		C274.5,103.575,266.842,95.916,257.396,95.916L257.396,95.916z"/>
	<path display="inline" fill="#1A75E0" d="M309.834,155.125h-8.439v-25c0-5.059-4.14-9.174-9.227-9.174
		c-5.089,0-9.229,4.115-9.229,9.174v25H274.5V95.916h8.439c0,0,0,23.268,0,23.334c0-1.58,1.511-3.075,2.643-3.968
		c1.095-0.863,2.713-1.511,4.035-1.917c2.107-0.65,4.303-0.479,6.445-0.105c1.533,0.268,2.987,0.818,4.342,1.582
		c2.723,1.537,5.281,3.743,6.905,6.438c1.626,2.697,2.523,5.688,2.523,8.847C309.834,130.126,309.834,155.125,309.834,155.125z"/>
	<path display="inline" fill="#1A75E0" d="M-26.741,84.055c6.895,0,12.504,4.285,12.504,9.553 M-14.191,93.6h-26.848v5.334h34.434
		v-5.326c0-9.142-9.014-16.553-20.136-16.553l0,0c-11.121,0-20.135,7.411-20.135,16.553v9.963c0,9.142,9.015,16.552,20.135,16.552
		c11.122,0,20.136-7.41,20.136-16.552h-7.632c0,5.267-5.609,9.552-12.504,9.552s-12.503-4.285-12.503-9.552v-9.963
		c0-5.268,5.609-9.553,12.503-9.553"/>
	<path display="inline" fill="#1A75E0" d="M23.333,126.047H0.063v5.75h31.749v-6.693c0-8.932-8.6-16.172-19.208-16.172l0,0
		c-10.61,0-19.209,7.24-19.209,16.172v9.73c0,8.932,8.599,16.171,19.209,16.171c10.608,0,19.15-7.187,19.15-14.254l-8.421,0.008
		v-0.219c0,5.474-4.813,9.924-10.729,9.924c-5.917,0-10.73-4.45-10.73-9.924v-12.392c0-5.616,4.813-10.186,10.73-10.186
		c5.916,0,10.729,4.568,10.729,10.186"/>
	<polygon display="inline" fill="#1A75E0" points="393.986,155.125 356.961,107.341 356.961,155.125 349.166,155.125 
		349.166,95.916 357.922,95.916 395.203,143.7 395.203,95.916 402.998,95.916 402.998,155.125 	"/>
	<path display="inline" fill="#1A75E0" d="M316.578,134.982l-0.021,3.082c-0.041,5.646,5.656,10.283,12.701,10.336
		c5.572,0.019,10.517-2.807,12.244-7.09l6.234,2.514c-2.732,6.773-10.097,11.298-18.357,11.298c-0.055,0-0.113-0.001-0.17-0.001
		c-10.752-0.078-19.443-7.752-19.375-17.105l0.061-8.188c0.068-9.307,8.783-16.821,19.457-16.821c0.058,0,0.109,0.001,0.168,0.001
		c10.752,0.079,19.441,7.754,19.373,17.108l-0.045,6.229l-0.057,0.012h-32.223l0.039-5.041h25.557V131.3l0.008-1.231
		c0.041-5.649-5.658-10.286-12.701-10.338c-0.041,0-0.082,0-0.121,0c-6.989,0-12.69,4.531-12.731,10.147l-0.01,1.442"/>
</g>
<text transform="matrix(1 0 0 1 372.4141 20.8159)" fill="#1A75E0" font-family="'HelveticaNeue'" font-size="19.0627">®</text>
</svg>
